<svg xmlns="http://www.w3.org/2000/svg" viewBox="0 0 213.18 213.18"><defs><style>.cls-1{fill:#ffd7d7}</style></defs><title>Asset 2</title><g id="Layer_2" data-name="Layer 2"><g id="Layer_1-2" data-name="Layer 1"><g id="_640fb903-7c97-3a8b-d0a7-369102908d0a" data-name="640fb903-7c97-3a8b-d0a7-369102908d0a"><path d="M106.59,213.18A106.22,106.22,0,0,0,213.18,106.59,106.22,106.22,0,0,0,106.59,0,106.22,106.22,0,0,0,0,106.59,106.22,106.22,0,0,0,106.59,213.18Zm6.12-18.1a50.11,50.11,0,0,1-6.12.25c-2.81,0-5.61-.25-8.41-.51A154.83,154.83,0,0,1,78,149.18h45.14a22.09,22.09,0,0,0,7.65,9.69A155.5,155.5,0,0,1,112.71,195.08Zm24.22-5.1a160.52,160.52,0,0,0,11.74-27.29,22.15,22.15,0,0,0,16.06-13.51h19.64A91,91,0,0,1,136.93,190Zm58.15-83.39a97.72,97.72,0,0,1-3.32,24.48H164.22a23.4,23.4,0,0,0-7.14-8.67q.76-8.41.76-16.83a178.35,178.35,0,0,0-1.53-23.46H191.5a78,78,0,0,1,3.57,24.48ZM184.37,64H153.26a171.81,171.81,0,0,0-14.79-40A90.32,90.32,0,0,1,184.37,64ZM140,105.57c0,4.34-.26,8.67-.51,13a22.07,22.07,0,0,0-15.81,12.49H74.46a177.64,177.64,0,0,1-1.78-23.2,138.84,138.84,0,0,1,.76-14.54,23,23,0,0,0,15.3-11.22h49.73A178.35,178.35,0,0,1,140,105.57ZM100,18.36a61.12,61.12,0,0,1,6.63-.25c2.55,0,5.1,0,7.65.25A155,155,0,0,1,134.39,64H90a24.39,24.39,0,0,0-7.91-11A165.71,165.71,0,0,1,100,18.36Zm-24.22,5.1A188.14,188.14,0,0,0,64.52,49,22.56,22.56,0,0,0,47.69,63.75H29.07A89.66,89.66,0,0,1,75.74,23.46ZM18.11,106.59a86,86,0,0,1,3.57-24.48H49.47a25,25,0,0,0,6.37,7.39c-.51,6.12-1,12.24-1,18.37a172.75,172.75,0,0,0,1.53,23.2H21.68A79,79,0,0,1,18.11,106.59Zm41.31,42.33a175.78,175.78,0,0,0,14.79,40,89.32,89.32,0,0,1-45.39-40Z" class="cls-1"/></g></g></g></svg>